<?xml version="1.0" encoding="utf-8" standalone="no"?>
<!DOCTYPE svg PUBLIC "-//W3C//DTD SVG 1.1//EN"
  "http://www.w3.org/Graphics/SVG/1.1/DTD/svg11.dtd">
<svg xmlns:xlink="http://www.w3.org/1999/xlink" width="736.117324pt" height="329.280935pt" viewBox="0 0 736.117324 329.280935" xmlns="http://www.w3.org/2000/svg" version="1.1">
 <metadata>
  <rdf:RDF xmlns:dc="http://purl.org/dc/elements/1.1/" xmlns:cc="http://creativecommons.org/ns#" xmlns:rdf="http://www.w3.org/1999/02/22-rdf-syntax-ns#">
   <cc:Work>
    <dc:type rdf:resource="http://purl.org/dc/dcmitype/StillImage"/>
    <dc:date>2026-09-13T23:46:42.527819</dc:date>
    <dc:format>image/svg+xml</dc:format>
    <dc:creator>
     <cc:Agent>
      <dc:title>Matplotlib v3.11.1, https://matplotlib.org/</dc:title>
     </cc:Agent>
    </dc:creator>
   </cc:Work>
  </rdf:RDF>
 </metadata>
 <defs>
  <style type="text/css">*{stroke-linejoin: round; stroke-linecap: butt}</style>
 </defs>
 <g id="figure_1">
  <g id="patch_1">
   <path d="M -0 329.280935 
L 736.117324 329.280935 
L 736.117324 -0 
L -0 -0 
z
" style="fill: #ffffff"/>
  </g>
  <g id="axes_1">
   <g id="patch_2">
    <path d="M 52.088105 247.651462 
L 721.688105 247.651462 
L 721.688105 31.435462 
L 52.088105 31.435462 
z
" style="fill: #ffffff"/>
   </g>
   <g id="FillBetweenPolyCollection_1">
    <path d="M 58.784105 31.435462 
L 58.784105 247.651462 
L 72.176105 247.651462 
L 85.568105 247.651462 
L 98.960105 247.651462 
L 112.352105 247.651462 
L 125.744105 247.651462 
L 139.136105 247.651462 
L 152.528105 247.651462 
L 165.920105 247.651462 
L 179.312105 247.651462 
L 192.704105 247.651462 
L 206.096105 247.651462 
L 219.488105 247.651462 
L 232.880105 247.651462 
L 246.272105 247.651462 
L 259.664105 247.651462 
L 273.056105 247.651462 
L 286.448105 247.651462 
L 299.840105 247.651462 
L 313.232105 247.651462 
L 326.624105 247.651462 
L 340.016105 247.651462 
L 353.408105 247.651462 
L 366.800105 247.651462 
L 380.192105 247.651462 
L 393.584105 247.651462 
L 406.976105 247.651462 
L 420.368105 247.651462 
L 433.760105 247.651462 
L 447.152105 247.651462 
L 460.544105 247.651462 
L 473.936105 247.651462 
L 487.328105 247.651462 
L 500.720105 247.651462 
L 514.112105 247.651462 
L 527.504105 247.651462 
L 540.896105 247.651462 
L 554.288105 247.651462 
L 567.680105 247.651462 
L 581.072105 247.651462 
L 594.464105 247.651462 
L 607.856105 247.651462 
L 621.248105 247.651462 
L 634.640105 247.651462 
L 648.032105 247.651462 
L 661.424105 247.651462 
L 674.816105 247.651462 
L 688.208105 247.651462 
L 701.600105 247.651462 
L 714.992105 247.651462 
L 714.992105 31.651862 
L 714.992105 31.651862 
L 701.600105 39.622166 
L 688.208105 33.615885 
L 674.816105 40.943585 
L 661.424105 40.868561 
L 648.032105 209.081983 
L 634.640105 243.235816 
L 621.248105 245.167082 
L 607.856105 245.733263 
L 594.464105 246.891075 
L 581.072105 247.651462 
L 567.680105 247.651462 
L 554.288105 229.695676 
L 540.896105 213.571812 
L 527.504105 244.596922 
L 514.112105 246.040023 
L 500.720105 247.651462 
L 487.328105 245.637772 
L 473.936105 246.93724 
L 460.544105 247.651462 
L 447.152105 247.651462 
L 433.760105 247.590428 
L 420.368105 245.436426 
L 406.976105 244.248395 
L 393.584105 228.411255 
L 380.192105 75.395477 
L 366.800105 34.495067 
L 353.408105 32.080446 
L 340.016105 31.435462 
L 326.624105 31.435462 
L 313.232105 31.435462 
L 299.840105 31.435462 
L 286.448105 31.435462 
L 273.056105 31.435462 
L 259.664105 31.435462 
L 246.272105 31.435462 
L 232.880105 38.657606 
L 219.488105 107.432952 
L 206.096105 87.380105 
L 192.704105 103.447086 
L 179.312105 115.578406 
L 165.920105 33.398078 
L 152.528105 33.01796 
L 139.136105 32.891889 
L 125.744105 31.435462 
L 112.352105 31.435462 
L 98.960105 31.435462 
L 85.568105 31.435462 
L 72.176105 31.435462 
L 58.784105 31.435462 
z
" clip-path="url(#p2cceb70f73)" style="fill: #2e7d32; fill-opacity: 0.92"/>
   </g>
   <g id="FillBetweenPolyCollection_2">
    <path d="M 58.784105 31.435462 
L 58.784105 31.435462 
L 72.176105 31.435462 
L 85.568105 31.435462 
L 98.960105 31.435462 
L 112.352105 31.435462 
L 125.744105 31.435462 
L 139.136105 32.891889 
L 152.528105 33.01796 
L 165.920105 33.398078 
L 179.312105 115.578406 
L 192.704105 103.447086 
L 206.096105 87.380105 
L 219.488105 107.432952 
L 232.880105 38.657606 
L 246.272105 31.435462 
L 259.664105 31.435462 
L 273.056105 31.435462 
L 286.448105 31.435462 
L 299.840105 31.435462 
L 313.232105 31.435462 
L 326.624105 31.435462 
L 340.016105 31.435462 
L 353.408105 32.080446 
L 366.800105 34.495067 
L 380.192105 75.395477 
L 393.584105 228.411255 
L 406.976105 244.248395 
L 420.368105 245.436426 
L 433.760105 247.590428 
L 447.152105 247.651462 
L 460.544105 247.651462 
L 473.936105 246.93724 
L 487.328105 245.637772 
L 500.720105 247.651462 
L 514.112105 246.040023 
L 527.504105 244.596922 
L 540.896105 213.571812 
L 554.288105 229.695676 
L 567.680105 247.651462 
L 581.072105 247.651462 
L 594.464105 246.891075 
L 607.856105 245.733263 
L 621.248105 245.167082 
L 634.640105 243.235816 
L 648.032105 209.081983 
L 661.424105 40.868561 
L 674.816105 40.943585 
L 688.208105 33.615885 
L 701.600105 39.622166 
L 714.992105 31.651862 
L 714.992105 31.435462 
L 714.992105 31.435462 
L 701.600105 31.435462 
L 688.208105 31.435462 
L 674.816105 31.435462 
L 661.424105 31.435462 
L 648.032105 31.435462 
L 634.640105 31.435462 
L 621.248105 31.435462 
L 607.856105 31.435462 
L 594.464105 31.435462 
L 581.072105 31.435462 
L 567.680105 31.435462 
L 554.288105 31.435462 
L 540.896105 31.435462 
L 527.504105 31.435462 
L 514.112105 31.435462 
L 500.720105 32.189165 
L 487.328105 32.754776 
L 473.936105 45.994797 
L 460.544105 46.486068 
L 447.152105 32.679588 
L 433.760105 44.438274 
L 420.368105 46.288834 
L 406.976105 50.67406 
L 393.584105 31.435462 
L 380.192105 31.435462 
L 366.800105 31.435462 
L 353.408105 31.435462 
L 340.016105 31.435462 
L 326.624105 31.435462 
L 313.232105 31.435462 
L 299.840105 31.435462 
L 286.448105 31.435462 
L 273.056105 31.435462 
L 259.664105 31.435462 
L 246.272105 31.435462 
L 232.880105 31.435462 
L 219.488105 31.435462 
L 206.096105 31.435462 
L 192.704105 31.435462 
L 179.312105 31.435462 
L 165.920105 31.435462 
L 152.528105 31.435462 
L 139.136105 31.435462 
L 125.744105 31.435462 
L 112.352105 31.435462 
L 98.960105 31.435462 
L 85.568105 31.435462 
L 72.176105 31.435462 
L 58.784105 31.435462 
z
" clip-path="url(#p2cceb70f73)" style="fill: #d4a017; fill-opacity: 0.92"/>
   </g>
   <g id="FillBetweenPolyCollection_3">
    <path d="M 58.784105 31.435462 
L 58.784105 31.435462 
L 72.176105 31.435462 
L 85.568105 31.435462 
L 98.960105 31.435462 
L 112.352105 31.435462 
L 125.744105 31.435462 
L 139.136105 31.435462 
L 152.528105 31.435462 
L 165.920105 31.435462 
L 179.312105 31.435462 
L 192.704105 31.435462 
L 206.096105 31.435462 
L 219.488105 31.435462 
L 232.880105 31.435462 
L 246.272105 31.435462 
L 259.664105 31.435462 
L 273.056105 31.435462 
L 286.448105 31.435462 
L 299.840105 31.435462 
L 313.232105 31.435462 
L 326.624105 31.435462 
L 340.016105 31.435462 
L 353.408105 31.435462 
L 366.800105 31.435462 
L 380.192105 31.435462 
L 393.584105 31.435462 
L 406.976105 50.67406 
L 420.368105 46.288834 
L 433.760105 44.438274 
L 447.152105 32.679588 
L 460.544105 46.486068 
L 473.936105 45.994797 
L 487.328105 32.754776 
L 500.720105 32.189165 
L 514.112105 31.435462 
L 527.504105 31.435462 
L 540.896105 31.435462 
L 554.288105 31.435462 
L 567.680105 31.435462 
L 581.072105 31.435462 
L 594.464105 31.435462 
L 607.856105 31.435462 
L 621.248105 31.435462 
L 634.640105 31.435462 
L 648.032105 31.435462 
L 661.424105 31.435462 
L 674.816105 31.435462 
L 688.208105 31.435462 
L 701.600105 31.435462 
L 714.992105 31.435462 
L 714.992105 31.435462 
L 714.992105 31.435462 
L 701.600105 31.435462 
L 688.208105 31.435462 
L 674.816105 31.435462 
L 661.424105 31.435462 
L 648.032105 31.435462 
L 634.640105 31.435462 
L 621.248105 31.435462 
L 607.856105 31.435462 
L 594.464105 31.435462 
L 581.072105 31.435462 
L 567.680105 31.435462 
L 554.288105 31.435462 
L 540.896105 31.435462 
L 527.504105 31.435462 
L 514.112105 31.435462 
L 500.720105 31.435462 
L 487.328105 31.435462 
L 473.936105 31.435462 
L 460.544105 31.435462 
L 447.152105 31.435462 
L 433.760105 31.435462 
L 420.368105 31.435462 
L 406.976105 31.435462 
L 393.584105 31.435462 
L 380.192105 31.435462 
L 366.800105 31.435462 
L 353.408105 31.435462 
L 340.016105 31.435462 
L 326.624105 31.435462 
L 313.232105 31.435462 
L 299.840105 31.435462 
L 286.448105 31.435462 
L 273.056105 31.435462 
L 259.664105 31.435462 
L 246.272105 31.435462 
L 232.880105 31.435462 
L 219.488105 31.435462 
L 206.096105 31.435462 
L 192.704105 31.435462 
L 179.312105 31.435462 
L 165.920105 31.435462 
L 152.528105 31.435462 
L 139.136105 31.435462 
L 125.744105 31.435462 
L 112.352105 31.435462 
L 98.960105 31.435462 
L 85.568105 31.435462 
L 72.176105 31.435462 
L 58.784105 31.435462 
z
" clip-path="url(#p2cceb70f73)" style="fill: #c62828; fill-opacity: 0.92"/>
   </g>
   <g id="matplotlib.axis_1">
    <g id="xtick_1">
     <g id="line2d_1">
      <defs>
       <path id="m57d3ed5dd4" d="M 0 0 
L 0 3.5 
" style="stroke: #1a1a1a; stroke-width: 0.8"/>
      </defs>
      <g>
       <use xlink:href="#m57d3ed5dd4" x="52.088105" y="247.651462" style="fill: #1a1a1a; stroke: #1a1a1a; stroke-width: 0.8"/>
      </g>
     </g>
     <g id="text_1">
      <text style="font-size: 13px; font-family: 'Arial', 'Helvetica', 'DejaVu Sans'; text-anchor: middle; fill: #1a1a1a" x="52.088105" y="264.115817" transform="rotate(-0 52.088105 264.115817)">0</text>
     </g>
    </g>
    <g id="xtick_2">
     <g id="line2d_2">
      <g>
       <use xlink:href="#m57d3ed5dd4" x="186.008105" y="247.651462" style="fill: #1a1a1a; stroke: #1a1a1a; stroke-width: 0.8"/>
      </g>
     </g>
     <g id="text_2">
      <text style="font-size: 13px; font-family: 'Arial', 'Helvetica', 'DejaVu Sans'; text-anchor: middle; fill: #1a1a1a" x="186.008105" y="264.115817" transform="rotate(-0 186.008105 264.115817)">10</text>
     </g>
    </g>
    <g id="xtick_3">
     <g id="line2d_3">
      <g>
       <use xlink:href="#m57d3ed5dd4" x="319.928105" y="247.651462" style="fill: #1a1a1a; stroke: #1a1a1a; stroke-width: 0.8"/>
      </g>
     </g>
     <g id="text_3">
      <text style="font-size: 13px; font-family: 'Arial', 'Helvetica', 'DejaVu Sans'; text-anchor: middle; fill: #1a1a1a" x="319.928105" y="264.115817" transform="rotate(-0 319.928105 264.115817)">20</text>
     </g>
    </g>
    <g id="xtick_4">
     <g id="line2d_4">
      <g>
       <use xlink:href="#m57d3ed5dd4" x="453.848105" y="247.651462" style="fill: #1a1a1a; stroke: #1a1a1a; stroke-width: 0.8"/>
      </g>
     </g>
     <g id="text_4">
      <text style="font-size: 13px; font-family: 'Arial', 'Helvetica', 'DejaVu Sans'; text-anchor: middle; fill: #1a1a1a" x="453.848105" y="264.115817" transform="rotate(-0 453.848105 264.115817)">30</text>
     </g>
    </g>
    <g id="xtick_5">
     <g id="line2d_5">
      <g>
       <use xlink:href="#m57d3ed5dd4" x="587.768105" y="247.651462" style="fill: #1a1a1a; stroke: #1a1a1a; stroke-width: 0.8"/>
      </g>
     </g>
     <g id="text_5">
      <text style="font-size: 13px; font-family: 'Arial', 'Helvetica', 'DejaVu Sans'; text-anchor: middle; fill: #1a1a1a" x="587.768105" y="264.115817" transform="rotate(-0 587.768105 264.115817)">40</text>
     </g>
    </g>
    <g id="xtick_6">
     <g id="line2d_6">
      <g>
       <use xlink:href="#m57d3ed5dd4" x="721.688105" y="247.651462" style="fill: #1a1a1a; stroke: #1a1a1a; stroke-width: 0.8"/>
      </g>
     </g>
     <g id="text_6">
      <text style="font-size: 13px; font-family: 'Arial', 'Helvetica', 'DejaVu Sans'; text-anchor: middle; fill: #1a1a1a" x="721.688105" y="264.115817" transform="rotate(-0 721.688105 264.115817)">50</text>
     </g>
    </g>
    <g id="text_7">
     <text style="font-size: 13px; font-family: 'Arial', 'Helvetica', 'DejaVu Sans'; text-anchor: middle; fill: #1a1a1a" x="386.888105" y="280.316013" transform="rotate(-0 386.888105 280.316013)">distance along the corridor (km)</text>
    </g>
   </g>
   <g id="matplotlib.axis_2">
    <g id="ytick_1">
     <g id="line2d_7">
      <defs>
       <path id="m5650874154" d="M 0 0 
L -3.5 0 
" style="stroke: #1a1a1a; stroke-width: 0.8"/>
      </defs>
      <g>
       <use xlink:href="#m5650874154" x="52.088105" y="247.651462" style="fill: #1a1a1a; stroke: #1a1a1a; stroke-width: 0.8"/>
      </g>
     </g>
     <g id="text_8">
      <text style="font-size: 13px; font-family: 'Arial', 'Helvetica', 'DejaVu Sans'; text-anchor: end; fill: #1a1a1a" x="45.088105" y="252.38364" transform="rotate(-0 45.088105 252.38364)">0</text>
     </g>
    </g>
    <g id="ytick_2">
     <g id="line2d_8">
      <g>
       <use xlink:href="#m5650874154" x="52.088105" y="204.408262" style="fill: #1a1a1a; stroke: #1a1a1a; stroke-width: 0.8"/>
      </g>
     </g>
     <g id="text_9">
      <text style="font-size: 13px; font-family: 'Arial', 'Helvetica', 'DejaVu Sans'; text-anchor: end; fill: #1a1a1a" x="45.088105" y="209.14044" transform="rotate(-0 45.088105 209.14044)">20</text>
     </g>
    </g>
    <g id="ytick_3">
     <g id="line2d_9">
      <g>
       <use xlink:href="#m5650874154" x="52.088105" y="161.165062" style="fill: #1a1a1a; stroke: #1a1a1a; stroke-width: 0.8"/>
      </g>
     </g>
     <g id="text_10">
      <text style="font-size: 13px; font-family: 'Arial', 'Helvetica', 'DejaVu Sans'; text-anchor: end; fill: #1a1a1a" x="45.088105" y="165.89724" transform="rotate(-0 45.088105 165.89724)">40</text>
     </g>
    </g>
    <g id="ytick_4">
     <g id="line2d_10">
      <g>
       <use xlink:href="#m5650874154" x="52.088105" y="117.921862" style="fill: #1a1a1a; stroke: #1a1a1a; stroke-width: 0.8"/>
      </g>
     </g>
     <g id="text_11">
      <text style="font-size: 13px; font-family: 'Arial', 'Helvetica', 'DejaVu Sans'; text-anchor: end; fill: #1a1a1a" x="45.088105" y="122.65404" transform="rotate(-0 45.088105 122.65404)">60</text>
     </g>
    </g>
    <g id="ytick_5">
     <g id="line2d_11">
      <g>
       <use xlink:href="#m5650874154" x="52.088105" y="74.678662" style="fill: #1a1a1a; stroke: #1a1a1a; stroke-width: 0.8"/>
      </g>
     </g>
     <g id="text_12">
      <text style="font-size: 13px; font-family: 'Arial', 'Helvetica', 'DejaVu Sans'; text-anchor: end; fill: #1a1a1a" x="45.088105" y="79.41084" transform="rotate(-0 45.088105 79.41084)">80</text>
     </g>
    </g>
    <g id="ytick_6">
     <g id="line2d_12">
      <g>
       <use xlink:href="#m5650874154" x="52.088105" y="31.435462" style="fill: #1a1a1a; stroke: #1a1a1a; stroke-width: 0.8"/>
      </g>
     </g>
     <g id="text_13">
      <text style="font-size: 13px; font-family: 'Arial', 'Helvetica', 'DejaVu Sans'; text-anchor: end; fill: #1a1a1a" x="45.088105" y="36.16764" transform="rotate(-0 45.088105 36.16764)">100</text>
     </g>
    </g>
    <g id="text_14">
     <text style="font-size: 13px; font-family: 'Arial', 'Helvetica', 'DejaVu Sans'; text-anchor: middle; fill: #1a1a1a" x="16.664355" y="139.543462" transform="rotate(-90 16.664355 139.543462)">time share (%)</text>
    </g>
   </g>
   <g id="patch_3">
    <path d="M 52.088105 247.651462 
L 52.088105 31.435462 
" style="fill: none; stroke: #1a1a1a; stroke-width: 0.8; stroke-linejoin: miter; stroke-linecap: square"/>
   </g>
   <g id="patch_4">
    <path d="M 52.088105 247.651462 
L 721.688105 247.651462 
" style="fill: none; stroke: #1a1a1a; stroke-width: 0.8; stroke-linejoin: miter; stroke-linecap: square"/>
   </g>
   <g id="patch_5">
    <path d="M 651.611571 22.786822 
Q 520.808762 22.786822 390.005954 22.786822 
" style="fill: none; stroke: #1a1a1a; stroke-linecap: round"/>
    <path d="M 646.411571 20.186822 
L 651.611571 22.786822 
L 646.411571 25.386822 
" style="fill: none; stroke: #1a1a1a; stroke-linecap: round"/>
    <path d="M 395.205954 25.386822 
L 390.005954 22.786822 
L 395.205954 20.186822 
" style="fill: none; stroke: #1a1a1a; stroke-linecap: round"/>
   </g>
   <g id="text_15">
    <text style="font-size: 12.5px; font-family: 'Arial', 'Helvetica', 'DejaVu Sans'; text-anchor: middle; fill: #1a1a1a" x="520.808105" y="16.300342" transform="rotate(-0 520.808105 16.300342)">25–45 km: mostly reactive</text>
   </g>
   <g id="legend_1">
    <g id="patch_6">
     <path d="M 62.888105 314.75531 
L 86.888105 314.75531 
L 86.888105 306.35531 
L 62.888105 306.35531 
z
" style="fill: #2e7d32; fill-opacity: 0.92"/>
    </g>
    <g id="text_16">
     <text style="font-size: 12px; font-family: 'Arial', 'Helvetica', 'DejaVu Sans'; text-anchor: start; fill: #1a1a1a" x="96.488105" y="314.75531" transform="rotate(-0 96.488105 314.75531)">coordinated (C)</text>
    </g>
    <g id="patch_7">
     <path d="M 203.186855 314.75531 
L 227.186855 314.75531 
L 227.186855 306.35531 
L 203.186855 306.35531 
z
" style="fill: #d4a017; fill-opacity: 0.92"/>
    </g>
    <g id="text_17">
     <text style="font-size: 12px; font-family: 'Arial', 'Helvetica', 'DejaVu Sans'; text-anchor: start; fill: #1a1a1a" x="236.786855" y="314.75531" transform="rotate(-0 236.786855 314.75531)">reactive (R)</text>
    </g>
    <g id="patch_8">
     <path d="M 322.793105 314.75531 
L 346.793105 314.75531 
L 346.793105 306.35531 
L 322.793105 306.35531 
z
" style="fill: #c62828; fill-opacity: 0.92"/>
    </g>
    <g id="text_18">
     <text style="font-size: 12px; font-family: 'Arial', 'Helvetica', 'DejaVu Sans'; text-anchor: start; fill: #1a1a1a" x="356.393105" y="314.75531" transform="rotate(-0 356.393105 314.75531)">fallback (F)</text>
    </g>
   </g>
  </g>
 </g>
 <defs>
  <clipPath id="p2cceb70f73">
   <rect x="52.088105" y="31.435462" width="669.6" height="216.216"/>
  </clipPath>
 </defs>
</svg>
